# xmcd CD database file
#
# Track frame offsets:
#	150
#	18316
#	31712
#	53747
#	71588
#	90092
#	109947
#	127570
#	144580
#	165849
#	191489
#	211139
#
# Disc length: 3043 seconds
#
# Revision: 0
# Processed by: cddbd v1.5.2PL0 Copyright (c) Steve Scherf et al.
# Submitted via: CDex 1.51
#
DISCID=880be10c
DTITLE=บรรณ - แปลงกาย
DYEAR=2009
DGENRE=Jazz
TTITLE0=แปลงกาย [I Wish You Love]
TTITLE1=เรารักกัน [L-O-V-E]
TTITLE2=เธอคือหวานใจ [My One And Only Love]
TTITLE3=บอกฉันว่าคือเธอ [It Had To Be You]
TTITLE4=แสนดีใจ [C'est Si Bon]
TTITLE5=ใจตรงกัน [Fantastic That 's You]
TTITLE6=แปลงกาย [I Wish You Love] Female Version
TTITLE7=ขอจูบ [A Kiss To Build A Dream On]
TTITLE8=เป็นแฟนฉันหน่อย [I Could Write A Book]
TTITLE9=นะขวัญตา [Staormy Wheather]
TTITLE10=จดหมาย [P.S.I Love You]
TTITLE11=C'est SiBon - Instrumental Version
EXTD=YEAR: 2009
EXTT0=
EXTT1=
EXTT2=
EXTT3=
EXTT4=
EXTT5=
EXTT6=
EXTT7=
EXTT8=
EXTT9=
EXTT10=
EXTT11=
PLAYORDER=
